<svg width="364" height="119" viewBox="0 0 364 119" fill="none" xmlns="http://www.w3.org/2000/svg">
<g id="Logo">
<g id="LayerLoot">
<path id="Vector" d="M358.449 103.512C354.033 103.512 350.601 102.312 348.153 99.912C345.753 97.464 344.553 94.032 344.553 89.616V72.336H337.785V63.912H338.505C340.425 63.912 341.913 63.408 342.969 62.4C344.025 61.392 344.553 59.928 344.553 58.008V54.984H353.985V63.912H362.985V72.336H353.985V89.112C353.985 90.408 354.201 91.512 354.633 92.424C355.113 93.336 355.833 94.032 356.793 94.512C357.801 94.992 359.073 95.232 360.609 95.232C360.945 95.232 361.329 95.208 361.761 95.16C362.241 95.112 362.697 95.064 363.129 95.016V103.08C362.457 103.176 361.689 103.272 360.825 103.368C359.961 103.464 359.169 103.512 358.449 103.512Z" fill="#22C55E"/>
<path id="Vector_2" d="M313.48 103.944C309.64 103.944 306.136 103.056 302.968 101.28C299.848 99.504 297.352 97.08 295.48 94.008C293.656 90.936 292.744 87.432 292.744 83.496C292.744 79.56 293.656 76.056 295.48 72.984C297.352 69.912 299.848 67.488 302.968 65.712C306.088 63.936 309.592 63.048 313.48 63.048C317.32 63.048 320.8 63.936 323.92 65.712C327.04 67.488 329.512 69.912 331.336 72.984C333.208 76.008 334.144 79.512 334.144 83.496C334.144 87.432 333.208 90.936 331.336 94.008C329.464 97.08 326.968 99.504 323.848 101.28C320.728 103.056 317.272 103.944 313.48 103.944ZM313.48 95.304C315.592 95.304 317.44 94.8 319.024 93.792C320.656 92.784 321.928 91.392 322.84 89.616C323.8 87.792 324.28 85.752 324.28 83.496C324.28 81.192 323.8 79.176 322.84 77.448C321.928 75.672 320.656 74.28 319.024 73.272C317.44 72.216 315.592 71.688 313.48 71.688C311.32 71.688 309.424 72.216 307.792 73.272C306.16 74.28 304.864 75.672 303.904 77.448C302.992 79.176 302.536 81.192 302.536 83.496C302.536 85.752 302.992 87.792 303.904 89.616C304.864 91.392 306.16 92.784 307.792 93.792C309.424 94.8 311.32 95.304 313.48 95.304Z" fill="#22C55E"/>
<path id="Vector_3" d="M266.511 103.944C262.671 103.944 259.167 103.056 255.999 101.28C252.879 99.504 250.383 97.08 248.511 94.008C246.687 90.936 245.775 87.432 245.775 83.496C245.775 79.56 246.687 76.056 248.511 72.984C250.383 69.912 252.879 67.488 255.999 65.712C259.119 63.936 262.623 63.048 266.511 63.048C270.351 63.048 273.831 63.936 276.951 65.712C280.071 67.488 282.543 69.912 284.367 72.984C286.239 76.008 287.175 79.512 287.175 83.496C287.175 87.432 286.239 90.936 284.367 94.008C282.495 97.08 279.999 99.504 276.879 101.28C273.759 103.056 270.303 103.944 266.511 103.944ZM266.511 95.304C268.623 95.304 270.471 94.8 272.055 93.792C273.687 92.784 274.959 91.392 275.871 89.616C276.831 87.792 277.311 85.752 277.311 83.496C277.311 81.192 276.831 79.176 275.871 77.448C274.959 75.672 273.687 74.28 272.055 73.272C270.471 72.216 268.623 71.688 266.511 71.688C264.351 71.688 262.455 72.216 260.823 73.272C259.191 74.28 257.895 75.672 256.935 77.448C256.023 79.176 255.567 81.192 255.567 83.496C255.567 85.752 256.023 87.792 256.935 89.616C257.895 91.392 259.191 92.784 260.823 93.792C262.455 94.8 264.351 95.304 266.511 95.304Z" fill="#22C55E"/>
<path id="Vector_4" d="M209.057 103.08V49.44H218.849V94.44H241.817V103.08H209.057Z" fill="#22C55E"/>
<path id="Vector_5" d="M181.336 103.08V63.912H190.192V72.624L189.472 71.328C190.384 68.4 191.8 66.36 193.72 65.208C195.688 64.056 198.04 63.48 200.776 63.48H203.08V71.832H199.696C197.008 71.832 194.848 72.672 193.216 74.352C191.584 75.984 190.768 78.288 190.768 81.264V103.08H181.336Z" fill="#22C55E"/>
<path id="Vector_6" d="M155.826 103.944C151.794 103.944 148.266 103.032 145.242 101.208C142.218 99.384 139.866 96.912 138.186 93.792C136.506 90.672 135.666 87.216 135.666 83.424C135.666 79.488 136.506 76.008 138.186 72.984C139.914 69.912 142.242 67.488 145.17 65.712C148.146 63.936 151.458 63.048 155.106 63.048C158.178 63.048 160.866 63.552 163.17 64.56C165.522 65.568 167.514 66.96 169.146 68.736C170.778 70.512 172.026 72.552 172.89 74.856C173.754 77.112 174.186 79.56 174.186 82.2C174.186 82.872 174.138 83.568 174.042 84.288C173.994 85.008 173.874 85.632 173.682 86.16H143.442V78.96H168.354L163.89 82.344C164.322 80.136 164.202 78.168 163.53 76.44C162.906 74.712 161.85 73.344 160.362 72.336C158.922 71.328 157.17 70.824 155.106 70.824C153.138 70.824 151.386 71.328 149.85 72.336C148.314 73.296 147.138 74.736 146.322 76.656C145.554 78.528 145.266 80.808 145.458 83.496C145.266 85.896 145.578 88.032 146.394 89.904C147.258 91.728 148.506 93.144 150.138 94.152C151.818 95.16 153.738 95.664 155.898 95.664C158.058 95.664 159.882 95.208 161.37 94.296C162.906 93.384 164.106 92.16 164.97 90.624L172.602 94.368C171.834 96.24 170.634 97.896 169.002 99.336C167.37 100.776 165.426 101.904 163.17 102.72C160.962 103.536 158.514 103.944 155.826 103.944Z" fill="#22C55E"/>
<path id="Vector_7" d="M100.517 118.92C99.4612 118.92 98.4292 118.824 97.4212 118.632C96.4132 118.488 95.5012 118.2 94.6852 117.768V109.92C95.3092 110.064 96.0532 110.208 96.9172 110.352C97.8292 110.496 98.6692 110.568 99.4372 110.568C101.597 110.568 103.157 110.064 104.117 109.056C105.125 108.096 106.013 106.8 106.781 105.168L109.373 99.12L109.229 107.04L92.1652 63.912H102.317L114.269 95.736H110.669L122.549 63.912H132.773L115.709 107.04C114.701 109.536 113.477 111.672 112.037 113.448C110.597 115.224 108.917 116.568 106.997 117.48C105.125 118.44 102.965 118.92 100.517 118.92Z" fill="#22C55E"/>
<path id="Vector_8" d="M65.8796 103.944C63.1436 103.944 60.7676 103.488 58.7516 102.576C56.7356 101.664 55.1756 100.368 54.0716 98.688C52.9676 96.96 52.4156 94.968 52.4156 92.712C52.4156 90.552 52.8956 88.632 53.8556 86.952C54.8156 85.224 56.3036 83.784 58.3196 82.632C60.3356 81.48 62.8796 80.664 65.9516 80.184L78.7676 78.096V85.296L67.7516 87.168C65.8796 87.504 64.4876 88.104 63.5756 88.968C62.6636 89.832 62.2076 90.96 62.2076 92.352C62.2076 93.696 62.7116 94.776 63.7196 95.592C64.7756 96.36 66.0716 96.744 67.6076 96.744C69.5756 96.744 71.3036 96.336 72.7916 95.52C74.3276 94.656 75.5036 93.48 76.3196 91.992C77.1836 90.504 77.6156 88.872 77.6156 87.096V77.016C77.6156 75.336 76.9436 73.944 75.5996 72.84C74.3036 71.688 72.5756 71.112 70.4156 71.112C68.3996 71.112 66.5996 71.664 65.0156 72.768C63.4796 73.824 62.3516 75.24 61.6316 77.016L53.9276 73.272C54.6956 71.208 55.8956 69.432 57.5276 67.944C59.2076 66.408 61.1756 65.208 63.4316 64.344C65.6876 63.48 68.1356 63.048 70.7756 63.048C73.9916 63.048 76.8236 63.648 79.2716 64.848C81.7196 66 83.6156 67.632 84.9596 69.744C86.3516 71.808 87.0476 74.232 87.0476 77.016V103.08H78.1196V96.384L80.1356 96.24C79.1276 97.92 77.9276 99.336 76.5356 100.488C75.1436 101.592 73.5596 102.456 71.7836 103.08C70.0076 103.656 68.0396 103.944 65.8796 103.944Z" fill="#22C55E"/>
<path id="L" d="M15.6979 103.08V77.58H20.5139H25.4899V94.44H48.4579V103.08H15.6979Z" fill="#22C55E"/>
</g>
<g id="Hot End">
<path id="Filament" d="M20.5139 72.1098V74.829C20.5139 75.8756 19.8016 76.7879 18.7863 77.0417V77.0417C18.6054 77.0869 18.4196 77.1098 18.2331 77.1098H16.0139H15.6975" stroke="#22C55E"/>
<rect id="Rectangle 2" x="13.371" y="53.5086" width="14.2857" height="10" fill="#22C55E"/>
<rect id="Rectangle 1" x="14.7996" y="44.9372" width="11.4286" height="7.14286" fill="#22C55E"/>
<path id="Nozzle" d="M21.3277 72.3694C20.9289 72.9277 20.099 72.9277 19.7002 72.3694L13.3711 63.5086H27.6568L21.3277 72.3694Z" fill="#22C55E"/>
<rect id="Block" x="6.22821" y="30.6515" width="28.5714" height="12.8571" fill="#22C55E"/>
<g id="Fins">
<rect id="Fin 1" x="0.513916" y="24.08" width="40" height="4.28571" fill="#22C55E"/>
<rect id="Fin 2" x="0.513916" y="18.08" width="40" height="4.28571" fill="#22C55E"/>
<rect id="Fin 3" x="0.513916" y="12.08" width="40" height="4.28571" fill="#22C55E"/>
<rect id="Fin 4" x="0.513916" y="6.08002" width="40" height="4.28571" fill="#22C55E"/>
<path id="Fin 5" d="M0.513916 0.0800171H40.5139V4.36118H0.513916V0.0800171Z" fill="#22C55E"/>
</g>
</g>
</g>
</svg>
